<?xml version="1.0" standalone="no"?>
<!DOCTYPE svg PUBLIC "-//W3C//DTD SVG 20010904//EN"
 "http://www.w3.org/TR/2001/REC-SVG-20010904/DTD/svg10.dtd">
<svg version="1.0" xmlns="http://www.w3.org/2000/svg"
 width="120.000000pt" height="85.000000pt" viewBox="0 0 120.000000 85.000000"
 preserveAspectRatio="xMidYMid meet">

<g transform="translate(0.000000,85.000000) scale(0.100000,-0.100000)"
fill="#000000" stroke="none">
<path d="M750 415 c-16 -19 -6 -32 36 -50 20 -8 33 -19 29 -25 -8 -13 -55 -13
-55 0 0 6 -4 10 -10 10 -18 0 -11 -19 11 -30 11 -7 32 -9 46 -6 19 5 24 12 21
33 -2 21 -10 29 -35 35 -18 5 -33 13 -33 19 0 15 30 23 43 10 17 -17 31 -13
17 4 -16 19 -54 19 -70 0z"/>
<path d="M850 375 l0 -55 43 2 c36 1 38 2 10 5 -43 6 -47 40 -5 46 l27 4 -28
2 c-21 1 -28 6 -25 18 2 11 14 16 43 17 l40 1 3 -53 c4 -63 22 -60 22 4 0 24
5 44 10 44 6 0 10 5 10 10 0 6 -32 10 -75 10 l-75 0 0 -55z"/>
<path d="M754 258 c1 -33 5 -43 19 -44 11 -1 12 0 3 3 -9 2 -17 21 -19 44 l-4
39 1 -42z"/>
<path d="M980 285 c-1 -11 -2 -27 -1 -37 3 -25 -20 -34 -36 -13 -7 11 -13 14
-13 8 0 -6 7 -16 16 -23 23 -20 47 8 41 51 -2 19 -5 25 -7 14z"/>
<path d="M810 269 c-13 -9 -13 -10 1 -6 9 3 23 0 30 -6 11 -10 11 -9 0 6 -7 9
-14 17 -15 17 0 0 -8 -5 -16 -11z"/>
<path d="M890 276 c0 -2 8 -10 18 -17 15 -13 16 -12 3 4 -13 16 -21 21 -21 13z"/>
<path d="M800 233 c11 -24 34 -30 45 -13 3 6 -1 7 -10 4 -9 -4 -22 1 -31 12
-14 18 -14 18 -4 -3z"/>
<path d="M860 241 c0 -10 29 -36 34 -30 1 2 -6 12 -16 22 -10 9 -18 13 -18 8z"/>
</g>
</svg>
