<?xml version="1.0" encoding="UTF-8"?>
<svg id="Camada_2" data-name="Camada 2" xmlns="http://www.w3.org/2000/svg" viewBox="0 0 11.84 10.35">
  <defs>
    <style>
      .cls-1 {
        fill: #e1001a;
      }
    </style>
  </defs>
  <g id="Camada_1-2" data-name="Camada 1">
    <g>
      <path class="cls-1" d="M11.4,9.91c-.06-.03-.15,0-.23,0-1.75,0-3.49,0-5.24,0h-.3s-.02-.06-.04-.09c.09-.07.18-.13.25-.2,1.87-1.87,3.74-3.73,5.6-5.6.51-.52.52-1.15,0-1.66-.67-.68-1.35-1.35-2.02-2.02-.23-.24-.51-.36-.85-.32-.35.03-.7.07-1.06.07-.69,0-1.21.3-1.69.8-1.73,1.77-3.49,3.5-5.23,5.26-.22.22-.38.51-.57.77-.06.15-.06.27,0,.47.13.21.24.45.41.63.64.67,1.3,1.31,1.95,1.96.27.28.59.39.98.38.89-.02,1.79-.04,2.68-.05,1.7,0,3.4,0,5.09,0,.09,0,.19.02.26-.02.07-.04.16-.13.16-.2,0-.06-.1-.14-.18-.18ZM2.59,9.54c-.58-.63-1.21-1.23-1.82-1.84-.37-.37-.37-.73,0-1.1.93-.93,1.87-1.85,2.78-2.8.3-.32.59-.29.99-.18-.22.22-.42.41-.61.6-.69.69-1.37,1.37-2.06,2.06-.52.53-.52,1.15,0,1.68.56.57,1.12,1.12,1.68,1.69.07.07.13.14.2.22-.47.08-.84.01-1.17-.34ZM4.14,9.61c-.65-.64-1.29-1.29-1.94-1.94-.39-.39-.39-.72,0-1.12.88-.88,1.76-1.76,2.65-2.64.03-.03.16-.11.3-.19,1,.98,2,1.96,3.05,3-.16.12-.29.2-.39.3-.86.86-1.72,1.72-2.59,2.58-.38.38-.72.38-1.09,0Z"/>
      <path class="cls-1" d="M1.74,6.84s-.05,0-.07,0c-.48,0-.96,0-1.44,0,0,.14-.02.27-.03.4.49,0,.98,0,1.47,0,.03,0,.06.02.08-.02.02-.04.05-.13.05-.2,0-.06-.03-.14-.05-.18Z"/>
    </g>
  </g>
</svg>